<svg width="230" height="230" xmlns="http://www.w3.org/2000/svg" xmlns:xlink="http://www.w3.org/1999/xlink" xml:space="preserve" overflow="hidden"><defs><filter id="fx0" x="-10%" y="-10%" width="120%" height="120%" filterUnits="userSpaceOnUse" primitiveUnits="userSpaceOnUse"><feComponentTransfer color-interpolation-filters="sRGB"><feFuncR type="discrete" tableValues="0 0"/><feFuncG type="discrete" tableValues="0 0"/><feFuncB type="discrete" tableValues="0 0"/><feFuncA type="linear" slope="0.4" intercept="0"/></feComponentTransfer><feGaussianBlur stdDeviation="1.6213 1.6213"/></filter><clipPath id="clip1"><rect x="45" y="43" width="139" height="62"/></clipPath></defs><g transform="translate(-2162 -1479)"><path d="M2172 1594 2276.5 1489 2381 1594 2276.5 1699Z" stroke="#000000" stroke-width="13.75" stroke-miterlimit="8" fill="#FFFFFF" fill-rule="evenodd"/><g clip-path="url(#clip1)" filter="url(#fx0)" transform="translate(2164 1526)"><g><path d="M42.0249-38.9595C42.0249-38.2703 41.9952-37.6763 41.9358-37.1772 41.8764-36.6782 41.7932-36.2802 41.6863-35.9832 41.5793-35.6861 41.4486-35.4782 41.2942-35.3594 41.1397-35.2406 40.9556-35.1811 40.7417-35.1811 40.4328-35.1811 39.9338-35.395 39.2446-35.8228 38.5555-36.2505 37.6406-36.7139 36.5-37.2129 35.3594-37.7119 33.9989-38.1753 32.4187-38.603 30.8385-39.0308 29.0028-39.2446 26.9116-39.2446 24.6779-39.2446 22.658-38.8585 20.852-38.0862 19.0461-37.3139 17.5015-36.2208 16.2183-34.8069 14.9351-33.393 13.9489-31.6939 13.2598-29.7097 12.5706-27.7255 12.2261-25.5334 12.2261-23.1333 12.2261-20.4956 12.5766-18.1728 13.2776-16.1648 13.9786-14.1568 14.9588-12.4756 16.2183-11.1211 17.4777-9.7666 18.9926-8.74479 20.7629-8.05566 22.5333-7.36654 24.4878-7.02197 26.6265-7.02197 27.672-7.02197 28.7057-7.14079 29.7275-7.37842 30.7493-7.61605 31.6999-7.97249 32.5791-8.44775L32.5791-19.1411 23.8462-19.1411C23.4185-19.1411 23.0858-19.4084 22.8481-19.9431 22.6105-20.4778 22.4917-21.3867 22.4917-22.6699 22.4917-23.3353 22.5214-23.8937 22.5808-24.3452 22.6402-24.7967 22.7293-25.1591 22.8481-25.4324 22.967-25.7056 23.1095-25.9076 23.2759-26.0383 23.4422-26.169 23.6323-26.2344 23.8462-26.2344L39.4228-26.2344C39.8031-26.2344 40.1417-26.169 40.4387-26.0383 40.7358-25.9076 40.9971-25.7116 41.2229-25.4502 41.4486-25.1888 41.6209-24.8739 41.7397-24.5056 41.8586-24.1373 41.918-23.7155 41.918-23.2402L41.918-4.8833C41.918-4.17041 41.7932-3.54663 41.5437-3.01196 41.2942-2.47729 40.7833-2.0555 40.011-1.74658 39.2387-1.43766 38.2822-1.11686 37.1416-0.78418 36.001-0.451497 34.8188-0.166341 33.595 0.0712891 32.3712 0.308919 31.1355 0.487142 29.8879 0.605957 28.6404 0.724772 27.3869 0.78418 26.1274 0.78418 22.4442 0.78418 19.1471 0.255452 16.2361-0.802002 13.3251-1.85946 10.8597-3.39217 8.83984-5.40015 6.81999-7.40812 5.27539-9.85571 4.20605-12.7429 3.13672-15.6301 2.60205-18.9035 2.60205-22.563 2.60205-26.3413 3.17236-29.7335 4.31299-32.7395 5.45361-35.7455 7.0695-38.3 9.16064-40.4031 11.2518-42.5061 13.7766-44.116 16.7351-45.2329 19.6936-46.3498 22.9907-46.9082 26.6265-46.9082 28.6226-46.9082 30.4404-46.7716 32.0801-46.4983 33.7197-46.225 35.1514-45.8923 36.3752-45.5002 37.599-45.1082 38.6149-44.6864 39.4228-44.2349 40.2308-43.7834 40.7952-43.3913 41.116-43.0586 41.4368-42.7259 41.6685-42.2566 41.811-41.6506 41.9536-41.0447 42.0249-40.1476 42.0249-38.9595ZM88.006-1.2832C88.006-1.04557 87.9288-0.831706 87.7743-0.641602 87.6199-0.451497 87.3644-0.297038 87.008-0.178223 86.6515-0.0594075 86.1763 0.0356445 85.5822 0.106934 84.9881 0.178223 84.2396 0.213867 83.3366 0.213867 82.4098 0.213867 81.6435 0.178223 81.0375 0.106934 80.4315 0.0356445 79.9563-0.0594075 79.6117-0.178223 79.2672-0.297038 79.0176-0.451497 78.8632-0.641602 78.7087-0.831706 78.6315-1.04557 78.6315-1.2832L78.6315-19.9253 61.3796-19.9253 61.3796-1.2832C61.3796-1.04557 61.3083-0.831706 61.1657-0.641602 61.0231-0.451497 60.7736-0.297038 60.4172-0.178223 60.0607-0.0594075 59.5854 0.0356445 58.9914 0.106934 58.3973 0.178223 57.6369 0.213867 56.7101 0.213867 55.8071 0.213867 55.0527 0.178223 54.4467 0.106934 53.8407 0.0356445 53.3595-0.0594075 53.0031-0.178223 52.6466-0.297038 52.3912-0.451497 52.2367-0.641602 52.0823-0.831706 52.005-1.04557 52.005-1.2832L52.005-44.8408C52.005-45.0784 52.0823-45.2923 52.2367-45.4824 52.3912-45.6725 52.6466-45.827 53.0031-45.9458 53.3595-46.0646 53.8407-46.1597 54.4467-46.231 55.0527-46.3022 55.8071-46.3379 56.7101-46.3379 57.6369-46.3379 58.3973-46.3022 58.9914-46.231 59.5854-46.1597 60.0607-46.0646 60.4172-45.9458 60.7736-45.827 61.0231-45.6725 61.1657-45.4824 61.3083-45.2923 61.3796-45.0784 61.3796-44.8408L61.3796-27.9097 78.6315-27.9097 78.6315-44.8408C78.6315-45.0784 78.7087-45.2923 78.8632-45.4824 79.0176-45.6725 79.2672-45.827 79.6117-45.9458 79.9563-46.0646 80.4315-46.1597 81.0375-46.231 81.6435-46.3022 82.4098-46.3379 83.3366-46.3379 84.2396-46.3379 84.9881-46.3022 85.5822-46.231 86.1763-46.1597 86.6515-46.0646 87.008-45.9458 87.3644-45.827 87.6199-45.6725 87.7743-45.4824 87.9288-45.2923 88.006-45.0784 88.006-44.8408ZM125.751-13.8301C125.751-11.4062 125.299-9.27946 124.396-7.44971 123.493-5.61995 122.269-4.09318 120.725-2.86938 119.18-1.64559 117.374-0.724772 115.307-0.106934 113.239 0.510905 111.029 0.819824 108.677 0.819824 107.085 0.819824 105.606 0.689128 104.239 0.427734 102.873 0.166341 101.667-0.148519 100.621-0.516846 99.5757-0.885172 98.7024-1.27132 98.0014-1.67529 97.3004-2.07926 96.7954-2.43571 96.4865-2.74463 96.1776-3.05355 95.9577-3.4991 95.8271-4.0813 95.6964-4.66349 95.631-5.50114 95.631-6.59424 95.631-7.33089 95.6548-7.94873 95.7023-8.44775 95.7498-8.94678 95.8271-9.35075 95.934-9.65967 96.0409-9.96859 96.1835-10.1884 96.3617-10.3191 96.5399-10.4498 96.7479-10.5151 96.9855-10.5151 97.3182-10.5151 97.7875-10.3191 98.3935-9.927 98.9994-9.53491 99.7776-9.10124 100.728-8.62598 101.679-8.15071 102.813-7.71704 104.132-7.32495 105.451-6.93286 106.978-6.73682 108.713-6.73682 109.853-6.73682 110.875-6.87345 111.778-7.14673 112.681-7.42 113.447-7.80615 114.077-8.30517 114.707-8.8042 115.188-9.42204 115.521-10.1587 115.853-10.8953 116.02-11.7152 116.02-12.6182 116.02-13.6637 115.735-14.5608 115.164-15.3093 114.594-16.0579 113.851-16.7232 112.936-17.3054 112.022-17.8876 110.982-18.4342 109.818-18.9451 108.653-19.456 107.453-19.9966 106.217-20.5669 104.982-21.1372 103.782-21.7847 102.617-22.5095 101.453-23.2343 100.413-24.1016 99.4984-25.1116 98.5836-26.1215 97.841-27.3156 97.2707-28.6938 96.7003-30.0721 96.4152-31.7236 96.4152-33.6484 96.4152-35.8584 96.8251-37.801 97.6449-39.4763 98.4647-41.1516 99.5697-42.5417 100.96-43.6467 102.35-44.7517 103.99-45.5775 105.879-46.124 107.768-46.6706 109.77-46.9438 111.885-46.9438 112.978-46.9438 114.071-46.8607 115.164-46.6943 116.257-46.528 117.279-46.3022 118.23-46.0171 119.18-45.7319 120.024-45.4111 120.76-45.0547 121.497-44.6982 121.984-44.4012 122.222-44.1636 122.459-43.9259 122.62-43.724 122.703-43.5576 122.786-43.3913 122.857-43.1715 122.917-42.8982 122.976-42.6249 123.018-42.2803 123.042-41.8645 123.065-41.4486 123.077-40.9318 123.077-40.314 123.077-39.6248 123.059-39.0426 123.024-38.5674 122.988-38.0921 122.929-37.7 122.846-37.3911 122.762-37.0822 122.644-36.8564 122.489-36.7139 122.335-36.5713 122.127-36.5 121.865-36.5 121.604-36.5 121.188-36.6663 120.618-36.999 120.048-37.3317 119.347-37.6941 118.515-38.0862 117.683-38.4783 116.721-38.8347 115.628-39.1555 114.534-39.4763 113.334-39.6367 112.027-39.6367 111.006-39.6367 110.115-39.512 109.354-39.2624 108.594-39.0129 107.958-38.6684 107.447-38.2288 106.936-37.7891 106.556-37.2604 106.307-36.6426 106.057-36.0247 105.932-35.3713 105.932-34.6821 105.932-33.6603 106.211-32.7751 106.77-32.0266 107.328-31.2781 108.077-30.6127 109.016-30.0305 109.954-29.4483 111.018-28.9018 112.206-28.3909 113.394-27.88 114.606-27.3394 115.841-26.769 117.077-26.1987 118.289-25.5512 119.477-24.8264 120.665-24.1016 121.723-23.2343 122.65-22.2244 123.576-21.2144 124.325-20.0263 124.895-18.6599 125.465-17.2935 125.751-15.6836 125.751-13.8301Z" transform="matrix(1 0 0 1 50.1128 97)"/></g></g><text font-family="Calibri,Calibri_MSFontService,sans-serif" font-weight="700" font-size="73" transform="matrix(1 0 0 1 2212.3 1621)">GHS</text></g></svg>